<?xml version="1.0" encoding="UTF-8"?>
<svg version="1.1" xmlns="http://www.w3.org/2000/svg" width="128" height="128">
<path d="M0 0 C42.24 0 84.48 0 128 0 C128 42.24 128 84.48 128 128 C85.76 128 43.52 128 0 128 C0 85.76 0 43.52 0 0 Z " fill="#0E0D0C" transform="translate(0,0)"/>
<path d="M0 0 C42.24 0 84.48 0 128 0 C128 21.45 128 42.9 128 65 C120.08 65 112.16 65 104 65 C104 58.4 104 51.8 104 45 C101.69 45 99.38 45 97 45 C97 41.04 97 37.08 97 33 C91.06 33 85.12 33 79 33 C79 29.04 79 25.08 79 21 C77.02 21 75.04 21 73 21 C73 19.02 73 17.04 73 15 C63.1 15 53.2 15 43 15 C43 13.02 43 11.04 43 9 C36.73 9 30.46 9 24 9 C24 14.94 24 20.88 24 27 C26.31 27 28.62 27 31 27 C31 28.98 31 30.96 31 33 C32.98 33 34.96 33 37 33 C37 43.56 37 54.12 37 65 C24.79 65 12.58 65 0 65 C0 43.55 0 22.1 0 0 Z " fill="#F59991" transform="translate(0,0)"/>
<path d="M0 0 C0.33 0 0.66 0 1 0 C1 6.6 1 13.2 1 20 C8.92 20 16.84 20 25 20 C25 40.79 25 61.58 25 83 C-17.24 83 -59.48 83 -103 83 C-103 62.21 -103 41.42 -103 20 C-90.79 20 -78.58 20 -66 20 C-66 23.3 -66 26.6 -66 30 C-67.98 30 -69.96 30 -72 30 C-72 44.19 -72 58.38 -72 73 C-60.12 73 -48.24 73 -36 73 C-36 70.69 -36 68.38 -36 66 C-34.02 66 -32.04 66 -30 66 C-30 68.31 -30 70.62 -30 73 C-24.06 73 -18.12 73 -12 73 C-12 70.69 -12 68.38 -12 66 C-10.02 66 -8.04 66 -6 66 C-6 58.41 -6 50.82 -6 43 C-4.02 43 -2.04 43 0 43 C0 28.81 0 14.62 0 0 Z " fill="#6D2C75" transform="translate(103,45)"/>
<path d="M0 0 C3.96 0 7.92 0 12 0 C12 2.31 12 4.62 12 7 C15.96 7 19.92 7 24 7 C24.33 12.94 24.66 18.88 25 25 C25.33 19.39 25.66 13.78 26 8 C26.99 8.99 27.98 9.98 29 11 C31.70484875 11.50545868 31.70484875 11.50545868 34.76171875 11.51171875 C35.87998047 11.54716797 36.99824219 11.58261719 38.15039062 11.61914062 C39.31763672 11.64169922 40.48488281 11.66425781 41.6875 11.6875 C42.86634766 11.72166016 44.04519531 11.75582031 45.25976562 11.79101562 C48.17284019 11.87357239 51.08640568 11.93846013 54 12 C54 16.62 54 21.24 54 26 C53.01 26 52.02 26 51 26 C51 27.32 51 28.64 51 30 C51.99 30 52.98 30 54 30 C54 32.31 54 34.62 54 37 C48.06 37 42.12 37 36 37 C36 34.69 36 32.38 36 30 C34.02 30 32.04 30 30 30 C30 32.31 30 34.62 30 37 C18.12 37 6.24 37 -6 37 C-6 35.02 -6 33.04 -6 31 C-5.67 32.32 -5.34 33.64 -5 35 C6.22 35 17.44 35 29 35 C29 34.01 29 33.02 29 32 C28.01 32.33 27.02 32.66 26 33 C23.71454362 33.01604778 21.42839781 32.96563536 19.14453125 32.87890625 C18.15207649 32.84348976 18.15207649 32.84348976 17.13957214 32.80735779 C15.03031998 32.73090143 12.9214518 32.64680043 10.8125 32.5625 C9.38087804 32.5092612 7.94923746 32.45652093 6.51757812 32.40429688 C3.01148424 32.27531118 -0.49430571 32.13946876 -4 32 C-3.67 30.68 -3.34 29.36 -3 28 C-2.34 28.66 -1.68 29.32 -1 30 C-0.67 20.1 -0.34 10.2 0 0 Z " fill="#170F18" transform="translate(37,81)"/>
<path d="M0 0 C4.29 0 8.58 0 13 0 C13 0.66 13 1.32 13 2 C13.99 2 14.98 2 16 2 C15.34 5.3 14.68 8.6 14 12 C23.57 12 33.14 12 43 12 C43 13.98 43 15.96 43 18 C44.98 18 46.96 18 49 18 C49 19.98 49 21.96 49 24 C47.02 24 45.04 24 43 24 C43 25.98 43 27.96 43 30 C50.92 30 58.84 30 67 30 C67 31.98 67 33.96 67 36 C53.14 36 39.28 36 25 36 C25 45.9 25 55.8 25 66 C23.02 66 21.04 66 19 66 C19 54.12 19 42.24 19 30 C19.99 30 20.98 30 22 30 C22 29.34 22 28.68 22 28 C20.02 28.33 18.04 28.66 16 29 C15.67 37.58 15.34 46.16 15 55 C14.34 55 13.68 55 13 55 C13 44.77 13 34.54 13 24 C11.02 24 9.04 24 7 24 C7 22.02 7 20.04 7 18 C4.69 18 2.38 18 0 18 C0 12.06 0 6.12 0 0 Z " fill="#0C0D0B" transform="translate(24,9)"/>
<path d="M0 0 C13.86 0 27.72 0 42 0 C42 9.9 42 19.8 42 30 C28.14 30 14.28 30 0 30 C0 20.1 0 10.2 0 0 Z " fill="#B4ACA3" transform="translate(55,51)"/>
<path d="M0 0 C12.21 0 24.42 0 37 0 C37 10.56 37 21.12 37 32 C24.79 32 12.58 32 0 32 C0 21.44 0 10.88 0 0 Z " fill="#E75F68" transform="translate(0,33)"/>
<path d="M0 0 C12.21 0 24.42 0 37 0 C37 3.3 37 6.6 37 10 C35.02 10 33.04 10 31 10 C31 17.26 31 24.52 31 32 C20.77 32 10.54 32 0 32 C0 21.44 0 10.88 0 0 Z " fill="#B63C93" transform="translate(0,65)"/>
<path d="M0 0 C0.33 0 0.66 0 1 0 C1 6.6 1 13.2 1 20 C8.92 20 16.84 20 25 20 C25 30.56 25 41.12 25 52 C14.77 52 4.54 52 -6 52 C-6 49.03 -6 46.06 -6 43 C-4.02 43 -2.04 43 0 43 C0 28.81 0 14.62 0 0 Z " fill="#B53C91" transform="translate(103,45)"/>
<path d="M0 0 C10.23 0 20.46 0 31 0 C31 10.56 31 21.12 31 32 C23.08 32 15.16 32 7 32 C7 25.4 7 18.8 7 12 C4.69 12 2.38 12 0 12 C0 8.04 0 4.08 0 0 Z " fill="#E65F68" transform="translate(97,33)"/>
<path d="M0 0 C3.96 0 7.92 0 12 0 C12 2.31 12 4.62 12 7 C15.96 7 19.92 7 24 7 C24 14.59 24 22.18 24 30 C16.08 30 8.16 30 0 30 C0 20.1 0 10.2 0 0 Z " fill="#0B6F2F" transform="translate(37,81)"/>
<path d="M0 0 C5.94 0 11.88 0 18 0 C18 5.94 18 11.88 18 18 C16.35 18.33 14.7 18.66 13 19 C13 20.65 13 22.3 13 24 C6.73 24 0.46 24 -6 24 C-6.020625 21.215625 -6.04125 18.43125 -6.0625 15.5625 C-6.071604 14.68408447 -6.08070801 13.80566895 -6.09008789 12.90063477 C-6.09723091 10.93354026 -6.05031893 8.96646379 -6 7 C-5 6 -5 6 -2.4375 5.9375 C-1.2309375 5.9684375 -1.2309375 5.9684375 0 6 C0 4.02 0 2.04 0 0 Z " fill="#B6ADA5" transform="translate(61,57)"/>
<path d="M0 0 C15.84 0 31.68 0 48 0 C48 1.98 48 3.96 48 6 C34.14 6 20.28 6 6 6 C6 15.9 6 25.8 6 36 C4.02 36 2.04 36 0 36 C0 24.12 0 12.24 0 0 Z " fill="#7C786F" transform="translate(43,39)"/>
<path d="M0 0 C9.9 0 19.8 0 30 0 C30 1.98 30 3.96 30 6 C31.98 6 33.96 6 36 6 C36 7.98 36 9.96 36 12 C34.02 12 32.04 12 30 12 C30 13.98 30 15.96 30 18 C26.04 18 22.08 18 18 18 C18 16.02 18 14.04 18 12 C16.02 12 14.04 12 12 12 C12 10.02 12 8.04 12 6 C8.04 6 4.08 6 0 6 C0 4.02 0 2.04 0 0 Z " fill="#D3202E" transform="translate(37,21)"/>
<path d="M0 0 C7.92 0 15.84 0 24 0 C24 4.29 24 8.58 24 13 C22.02 13 20.04 13 18 13 C18 14.65 18 16.3 18 18 C16.02 18 14.04 18 12 18 C12 16.35 12 14.7 12 13 C8.04 13 4.08 13 0 13 C0 8.71 0 4.42 0 0 Z " fill="#7A766E" transform="translate(67,93)"/>
<path d="M0 0 C2.97 0.33 5.94 0.66 9 1 C9 6.61 9 12.22 9 18 C10.32 17.67 11.64 17.34 13 17 C13.33 17.99 13.66 18.98 14 20 C13.01 20 12.02 20 11 20 C10.01 22.475 10.01 22.475 9 25 C4.71 25 0.42 25 -4 25 C-3.67 24.34 -3.34 23.68 -3 23 C-2.34 23 -1.68 23 -1 23 C-1 22.34 -1 21.68 -1 21 C-0.34 21 0.32 21 1 21 C1 20.34 1 19.68 1 19 C0.01 18.67 -0.98 18.34 -2 18 C-2.054138 15.75026553 -2.09285491 13.50015617 -2.125 11.25 C-2.14820312 9.99703125 -2.17140625 8.7440625 -2.1953125 7.453125 C-2 4 -2 4 0 0 Z " fill="#B1A9A0" transform="translate(82,56)"/>
<path d="M0 0 C4.29 0 8.58 0 13 0 C13 0.66 13 1.32 13 2 C13.99 2 14.98 2 16 2 C15.01 7.28 14.02 12.56 13 18 C8.71 18 4.42 18 0 18 C0 12.06 0 6.12 0 0 Z " fill="#100D0B" transform="translate(24,9)"/>
<path d="M0 0 C1.98 0 3.96 0 6 0 C6 7.59 6 15.18 6 23 C-1.92 23 -9.84 23 -18 23 C-18 21.35 -18 19.7 -18 18 C-12.06 18 -6.12 18 0 18 C0 12.06 0 6.12 0 0 Z " fill="#ECA724" transform="translate(55,88)"/>
<path d="M0 0 C5.94 0 11.88 0 18 0 C18 1.98 18 3.96 18 6 C14.04 6 10.08 6 6 6 C6 7.98 6 9.96 6 12 C4.02 12.33 2.04 12.66 0 13 C0 8.71 0 4.42 0 0 Z " fill="#ECE2D5" transform="translate(55,51)"/>
<path d="M0 0 C1.98 0 3.96 0 6 0 C6 7.92 6 15.84 6 24 C4.02 24 2.04 24 0 24 C0 16.08 0 8.16 0 0 Z " fill="#7A776E" transform="translate(43,51)"/>
<path d="M0 0 C5.94 0 11.88 0 18 0 C18 1.98 18 3.96 18 6 C14.04 6 10.08 6 6 6 C6 7.98 6 9.96 6 12 C4.02 12 2.04 12 0 12 C0 8.04 0 4.08 0 0 Z " fill="#EBE1D4" transform="translate(43,39)"/>
<path d="M0 0 C1.98 0 3.96 0 6 0 C6 5.94 6 11.88 6 18 C4.02 18 2.04 18 0 18 C0 12.06 0 6.12 0 0 Z " fill="#0C0B0A" transform="translate(61,57)"/>
<path d="M0 0 C1.98 0 3.96 0 6 0 C6 5.94 6 11.88 6 18 C4.02 18 2.04 18 0 18 C0 12.06 0 6.12 0 0 Z " fill="#12100F" transform="translate(85,57)"/>
<path d="M0 0 C1.98 0 3.96 0 6 0 C6 5.94 6 11.88 6 18 C4.02 18 2.04 18 0 18 C0 12.06 0 6.12 0 0 Z " fill="#0B0909" transform="translate(73,57)"/>
<path d="M0 0 C1.98 0 3.96 0 6 0 C5.01 0.33 4.02 0.66 3 1 C3 2.32 3 3.64 3 5 C3.99 5 4.98 5 6 5 C6 7.31 6 9.62 6 12 C0.06 12 -5.88 12 -12 12 C-12 11.67 -12 11.34 -12 11 C-6.94997778 9.96409801 -2.12583611 9.89748328 3 10 C3 9.01 3 8.02 3 7 C0.36 7 -2.28 7 -5 7 C-5.33 7.66 -5.66 8.32 -6 9 C-6 7.68 -6 6.36 -6 5 C-4.02 5 -2.04 5 0 5 C0 3.35 0 1.7 0 0 Z " fill="#1D121C" transform="translate(85,106)"/>
<path d="M0 0 C1.03060547 0.23396484 1.03060547 0.23396484 2.08203125 0.47265625 C2.98308594 0.66730469 3.88414063 0.86195312 4.8125 1.0625 C6.15248047 1.35833984 6.15248047 1.35833984 7.51953125 1.66015625 C10.12630779 2.20349463 10.12630779 2.20349463 13 1 C13.33 2.32 13.66 3.64 14 5 C16.64 5 19.28 5 22 5 C22 5.99 22 6.98 22 8 C17.05 8.33 12.1 8.66 7 9 C7 7.02 7 5.04 7 3 C5.02 3 3.04 3 1 3 C0.67 2.01 0.34 1.02 0 0 Z " fill="#0F0A10" transform="translate(66,108)"/>
<path d="M0 0 C0.66 0.33 1.32 0.66 2 1 C2 1.99 2 2.98 2 4 C2.66 4 3.32 4 4 4 C4 4.99 4 5.98 4 7 C0.47001672 8.17666109 -2.13637416 8.02013769 -5.85546875 7.87890625 C-6.51710526 7.85529526 -7.17874176 7.83168427 -7.86042786 7.80735779 C-9.96968002 7.73090143 -12.0785482 7.64680043 -14.1875 7.5625 C-15.61912196 7.5092612 -17.05076254 7.45652093 -18.48242188 7.40429688 C-21.98851576 7.27531118 -25.49430571 7.13946876 -29 7 C-28.67 5.68 -28.34 4.36 -28 3 C-27.34 3.66 -26.68 4.32 -26 5 C-23.37482767 5.18456667 -23.37482767 5.18456667 -20.3359375 4.9765625 C-19.21445312 4.925 -18.09296875 4.8734375 -16.9375 4.8203125 C-15.761875 4.75585938 -14.58625 4.69140625 -13.375 4.625 C-12.19164063 4.56828125 -11.00828125 4.5115625 -9.7890625 4.453125 C-6.85878888 4.31133757 -3.92933228 4.15989667 -1 4 C-0.67 2.68 -0.34 1.36 0 0 Z " fill="#191112" transform="translate(62,106)"/>
<path d="M0 0 C0.66 0.33 1.32 0.66 2 1 C2 2.65 2 4.3 2 6 C9.26 6 16.52 6 24 6 C24 6.99 24 7.98 24 9 C15.42 9.33 6.84 9.66 -2 10 C-2 8.35 -2 6.7 -2 5 C-2.33 4.34 -2.66 3.68 -3 3 C-2.01 3 -1.02 3 0 3 C0 2.01 0 1.02 0 0 Z " fill="#0A0D15" transform="translate(40,10)"/>
<path d="M0 0 C0.99 0.33 1.98 0.66 3 1 C3.2475 1.66 3.495 2.32 3.75 3 C4.1625 3.66 4.575 4.32 5 5 C8.56206661 5.81870185 8.56206661 5.81870185 12 6 C12 7.65 12 9.3 12 11 C10.35 11 8.7 11 7 11 C6.67 10.34 6.34 9.68 6 9 C5.34 9 4.68 9 4 9 C3.67 9.66 3.34 10.32 3 11 C2.01 11 1.02 11 0 11 C0 7.37 0 3.74 0 0 Z " fill="#0B0C0B" transform="translate(25,15)"/>
<path d="M0 0 C0.33 0 0.66 0 1 0 C1 6.6 1 13.2 1 20 C0.01 20 -0.98 20 -2 20 C-2.33 20.99 -2.66 21.98 -3 23 C-3.69278763 20.84466072 -4.11523472 19.43789193 -3.53125 17.21875 C-2.88187379 14.50664936 -2.90433717 12.03567768 -2.9375 9.25 C-2.94652344 8.26515625 -2.95554687 7.2803125 -2.96484375 6.265625 C-2.97644531 5.51796875 -2.98804687 4.7703125 -3 4 C-2.34 4 -1.68 4 -1 4 C-0.67 2.68 -0.34 1.36 0 0 Z " fill="#642C6B" transform="translate(30,97)"/>
<path d="M0 0 C0.99 0 1.98 0 3 0 C3 5.28 3 10.56 3 16 C2.01 16 1.02 16 0 16 C0 10.72 0 5.44 0 0 Z " fill="#086D32" transform="translate(52,88)"/>
<path d="M0 0 C7.92 0 15.84 0 24 0 C24 0.33 24 0.66 24 1 C17.73 1 11.46 1 5 1 C5 2.65 5 4.3 5 6 C3.35 6 1.7 6 0 6 C0 4.02 0 2.04 0 0 Z " fill="#B9B1A9" transform="translate(73,51)"/>
<path d="M0 0 C0.33 0 0.66 0 1 0 C1 5.61 1 11.22 1 17 C1.99 17 2.98 17 4 17 C4.66 15.68 5.32 14.36 6 13 C6.99 13.33 7.98 13.66 9 14 C9 14.66 9 15.32 9 16 C10.32 16.66 11.64 17.32 13 18 C8.71 18 4.42 18 0 18 C0 12.06 0 6.12 0 0 Z " fill="#3A2826" transform="translate(24,9)"/>
<path d="M0 0 C0.33 0 0.66 0 1 0 C1 5.61 1 11.22 1 17 C1.66 17 2.32 17 3 17 C3 17.99 3 18.98 3 20 C3.33 19.34 3.66 18.68 4 18 C4.99 18.33 5.98 18.66 7 19 C7 20.65 7 22.3 7 24 C5.68 23.67 4.36 23.34 3 23 C3.33 22.34 3.66 21.68 4 21 C3.01 20.67 2.02 20.34 1 20 C-0.1482685 17.703463 -0.11561175 16.41686833 -0.09765625 13.8671875 C-0.09443359 13.06152344 -0.09121094 12.25585938 -0.08789062 11.42578125 C-0.07951172 10.58402344 -0.07113281 9.74226563 -0.0625 8.875 C-0.05798828 8.02550781 -0.05347656 7.17601563 -0.04882812 6.30078125 C-0.03702874 4.20049091 -0.01909306 2.1002367 0 0 Z " fill="#A79F97" transform="translate(67,57)"/>
<path d="M0 0 C2.64 0.33 5.28 0.66 8 1 C8 1.66 8 2.32 8 3 C8.66 3 9.32 3 10 3 C10 3.66 10 4.32 10 5 C5.71 5 1.42 5 -3 5 C-2.34 3.68 -1.68 2.36 -1 1 C-0.67 1.33 -0.34 1.66 0 2 C0 1.34 0 0.68 0 0 Z " fill="#B0A79E" transform="translate(59,76)"/>
<path d="M0 0 C1.98 0 3.96 0 6 0 C6 1.98 6 3.96 6 6 C4.02 6 2.04 6 0 6 C0 4.02 0 2.04 0 0 Z " fill="#D32131" transform="translate(31,15)"/>
<path d="M0 0 C3.63 0 7.26 0 11 0 C11 0.99 11 1.98 11 3 C7.37 3.33 3.74 3.66 0 4 C0 2.68 0 1.36 0 0 Z " fill="#090D08" transform="translate(77,113)"/>
<path d="M0 0 C1.98 0 3.96 0 6 0 C6 1.65 6 3.3 6 5 C4.02 5 2.04 5 0 5 C0 3.35 0 1.7 0 0 Z " fill="#B1ABA3" transform="translate(79,106)"/>
<path d="M0 0 C0.33 0 0.66 0 1 0 C1 1.98 1 3.96 1 6 C-1.31 6 -3.62 6 -6 6 C-6 5.01 -6 4.02 -6 3 C-4.02 3 -2.04 3 0 3 C0 2.01 0 1.02 0 0 Z " fill="#E2968C" transform="translate(30,27)"/>
<path d="M0 0 C0.99 0.66 1.98 1.32 3 2 C2.67 3.65 2.34 5.3 2 7 C0.02 6.34 -1.96 5.68 -4 5 C-2.68 4.67 -1.36 4.34 0 4 C0 2.68 0 1.36 0 0 Z " fill="#101213" transform="translate(74,30)"/>
<path d="M0 0 C0.99 0.495 0.99 0.495 2 1 C2 1.66 2 2.32 2 3 C2.66 3 3.32 3 4 3 C4.33 2.34 4.66 1.68 5 1 C5.33 2.32 5.66 3.64 6 5 C4.02 5 2.04 5 0 5 C0 3.35 0 1.7 0 0 Z " fill="#F79D9D" transform="translate(73,16)"/>
</svg>
